<?xml version="1.0" encoding="UTF-8"?>
<svg id="Layer_1" xmlns="http://www.w3.org/2000/svg" version="1.1" viewBox="0 0 24 24">
  <!-- Generator: Adobe Illustrator 29.7.1, SVG Export Plug-In . SVG Version: 2.1.1 Build 8)  -->
  <defs>
    <style>
      .st0 {
        fill: #fff;
      }
    </style>
  </defs>
  <path class="st0" d="M22.4,10h-10.4v4.3h5.9c-.3,1.4-1,2.5-2.2,3.3-1,.7-2.2,1.1-3.7,1.1-2.9,0-5.3-1.9-6.2-4.5h0s0,0,0,0c-.2-.7-.4-1.4-.4-2.1s.1-1.4.4-2.1c.9-2.6,3.3-4.5,6.2-4.5s3.1.6,4.2,1.6l3.1-3.2c-1.9-1.8-4.4-2.9-7.4-2.9C7.7,1,4,3.5,2.2,7.1c-.8,1.5-1.2,3.1-1.2,4.9s.4,3.5,1.2,4.9h0c1.8,3.6,5.5,6.1,9.8,6.1s5.5-1,7.3-2.7c2.1-1.9,3.3-4.7,3.3-8.1s0-1.5-.2-2.2Z"/>
</svg>